<?xml version="1.0" standalone="no"?>
<!DOCTYPE svg PUBLIC "-//W3C//DTD SVG 20010904//EN"
 "http://www.w3.org/TR/2001/REC-SVG-20010904/DTD/svg10.dtd">
<svg version="1.0" xmlns="http://www.w3.org/2000/svg"
 width="512.000000pt" height="512.000000pt" viewBox="0 0 512.000000 512.000000"
 preserveAspectRatio="xMidYMid meet">

<g transform="translate(0.000000,512.000000) scale(0.100000,-0.100000)"
fill="#000000" stroke="none">
<path d="M1815 5109 c-129 -12 -272 -75 -373 -166 l-47 -42 291 -1 c318 0 346
-4 455 -61 87 -47 152 -124 351 -414 102 -148 237 -344 300 -435 63 -91 122
-177 132 -192 l18 -27 -169 -84 c-92 -47 -176 -94 -186 -104 -37 -42 -16 -130
36 -154 12 -5 292 -58 622 -118 545 -99 603 -108 632 -96 17 7 38 24 46 37 9
12 135 310 281 662 264 634 281 680 256 727 -12 22 -60 49 -89 49 -10 0 -101
-40 -200 -90 -100 -49 -184 -90 -186 -90 -3 0 -67 93 -143 208 -179 268 -248
332 -408 379 -54 16 -126 17 -804 18 -410 0 -776 -3 -815 -6z"/>
<path d="M3241 2313 c-30 -29 -833 -1131 -872 -1198 -21 -35 -22 -40 -8 -76 9
-26 153 -195 436 -511 231 -260 432 -484 446 -496 28 -26 80 -32 116 -13 44
24 51 59 51 241 l0 170 128 0 c70 1 161 7 202 14 156 28 301 106 407 219 33
35 232 314 444 620 211 306 410 593 442 639 48 70 60 96 73 161 11 55 13 91 8
122 l-9 45 -153 -146 c-89 -85 -171 -153 -195 -165 -40 -18 -75 -19 -694 -19
l-653 0 0 170 c0 184 -6 212 -51 236 -44 22 -85 18 -118 -13z"/>
<path d="M9 2220 c-4 -156 10 -206 85 -310 46 -63 374 -535 740 -1065 122
-177 215 -267 337 -328 159 -80 175 -82 561 -82 l338 0 27 28 28 27 3 673 c2
652 2 673 -17 704 -14 21 -32 35 -58 42 -25 7 -309 11 -843 11 -776 0 -807 1
-848 20 -24 11 -92 67 -155 127 -62 59 -131 125 -154 147 l-43 40 -1 -34z"/>
</g>
</svg>
